/* XPM */
static char *_a15a8c633ca4edc99558a8618dea636G0mS8nXzBcB7wmVq[] = {
/* columns rows colors chars-per-pixel */
"64 64 172 2 ",
"   c #A6362E",
".  c #A9372E",
"X  c #AC3A2F",
"o  c #B4372E",
"O  c #B33B2E",
"+  c #BC3A2F",
"@  c #AB3730",
"#  c #A73C32",
"$  c #AB3C32",
"%  c #BA3730",
"&  c #B43D31",
"*  c #BC3C32",
"=  c #C13B2F",
"-  c #C33C33",
";  c #C83F33",
":  c #AF402F",
">  c #B2402F",
",  c #AD4233",
"<  c #B44433",
"1  c #BB4434",
"2  c #B54835",
"3  c #BC4936",
"4  c #BE4638",
"5  c #BF4938",
"6  c #C44335",
"7  c #CB4236",
"8  c #C44A36",
"9  c #C94A36",
"0  c #C64238",
"q  c #CC4539",
"w  c #C44C3B",
"e  c #CB4C3B",
"r  c #D14537",
"t  c #D0473A",
"y  c #D24B3D",
"u  c #C7503C",
"i  c #CC513D",
"p  c #D2513E",
"a  c #D9513F",
"s  c #C64C41",
"d  c #CA4D43",
"f  c #C94E42",
"g  c #C94E43",
"h  c #CA4F42",
"j  c #CB4F42",
"k  c #C84D41",
"l  c #CC4A47",
"z  c #C94D44",
"x  c #C94F45",
"c  c #CA4E44",
"v  c #CB4E44",
"b  c #CA4F45",
"n  c #C94C46",
"m  c #CC4F44",
"M  c #CE4C47",
"N  c #CC4F47",
"B  c #CF4E47",
"V  c #CC4E42",
"C  c #CF4B49",
"Z  c #CD4C48",
"A  c #CD4D48",
"S  c #CC4D48",
"D  c #CE4C48",
"F  c #CF4D48",
"G  c #CF4C49",
"H  c #CC4E48",
"J  c #CF4E48",
"K  c #CF4F49",
"L  c #CF4C4A",
"P  c #CF4D4A",
"I  c #CF4C4B",
"U  c #CF4D4B",
"Y  c #CF4E4B",
"T  c #CF4D4C",
"R  c #D34E41",
"E  c #D94F42",
"W  c #D04E48",
"Q  c #D04F48",
"!  c #D04F49",
"~  c #D14F49",
"^  c #D04E4A",
"/  c #D14E4A",
"(  c #D04F4A",
")  c #D14F4A",
"_  c #D14F4B",
"`  c #D24F4A",
"'  c #D04D4D",
"]  c #C85040",
"[  c #C95040",
"{  c #C95140",
"}  c #CA5040",
"|  c #CA5041",
" . c #CB5041",
".. c #CA5141",
"X. c #CA5240",
"o. c #CB5240",
"O. c #CA5241",
"+. c #CA5042",
"@. c #CB5042",
"#. c #CB5142",
"$. c #CB5043",
"%. c #CB5143",
"&. c #CB5047",
"*. c #CD5045",
"=. c #CE5044",
"-. c #CC5147",
";. c #CE5146",
":. c #CE5047",
">. c #CE5147",
",. c #CF5247",
"<. c #CD5241",
"1. c #CD5148",
"2. c #CF5148",
"3. c #CE5148",
"4. c #CF5249",
"5. c #D05246",
"6. c #D25446",
"7. c #D35647",
"8. c #D45647",
"9. c #D35343",
"0. c #DA5444",
"q. c #D25843",
"w. c #DA5847",
"e. c #D15048",
"r. c #D15049",
"t. c #D05249",
"y. c #D2504B",
"u. c #D3524A",
"i. c #D3534A",
"p. c #D4534A",
"a. c #D35448",
"s. c #D35548",
"d. c #D2544A",
"f. c #D3544A",
"g. c #D45648",
"h. c #D45748",
"j. c #D45749",
"k. c #D55749",
"l. c #D4544A",
"z. c #D5554B",
"x. c #D5574A",
"c. c #D5564B",
"v. c #D5574B",
"b. c #D6574A",
"n. c #D6574B",
"m. c #D3514C",
"M. c #D2504D",
"N. c #D3514D",
"B. c #D3514E",
"V. c #D3524E",
"C. c #D4534C",
"Z. c #D4524D",
"A. c #D5534E",
"S. c #D5554C",
"D. c #D6554C",
"F. c #D6554D",
"G. c #D6564C",
"H. c #D5544E",
"J. c #D5544F",
"K. c #D6554E",
"L. c #D6554F",
"P. c #D7564F",
"I. c #D7574F",
"U. c #D5554A",
"Y. c #DA564A",
"T. c #D6584A",
"R. c #D6584B",
"E. c #DC594B",
"W. c #D55350",
"Q. c #D65450",
"!. c #D75550",
"~. c #D75651",
/* pixels */
"5 5 5 u 5 5 3 5 5 5 5 u 5 u 3 3 5 5 w w u u u w w 4 4 5 ] ] ] ] ] O.X.X.X.X.$.g V =.X.g g g z z z z z z B z S S W C C S T ' B.I ",
"5 8 5 3 3 3 3 5 5 5 3 u u 3 u 5 5 5 w w u u s 5 4 4 5 s w ] u ] X.] X.] g X.g X.g z s s s g z z -.4.=.4.W / S t./ l C W S _ _ _ ",
"5 u 5 3 3 4 3 3 5 u 3 5 5 8 3 3 5 8 w u w w w 4 4 w w u w ] ] s u ] ] ] s X.g e s e w s z z s x -.-.4.4.p.t./ / B W C N.N.B.Q.Q.",
"5 5 3 3 3 3 5 5 3 3 8 5 5 3 3 3 5 w w w w 5 3 5 5 5 w ] u ] w s w ] w s w g w s s s s V s z z x N 4.4.t.j.t.5./ / / / _ G.~.~.~.",
"3 3 3 3 3 3 3 3 5 4 3 3 4 1 3 5 5 w u w 5 4 4 w s w u w ] w w s 5 s s s w s 5 s s s s s s s g =.4.4.t.T.j.j.j.p./ / N./ _ G.~.Q.",
"3 3 3 3 5 3 3 3 3 3 4 4 1 4 4 5 5 w w 5 1 5 w 5 w w w s w 5 w s 5 s 4 s s w w s w s s s s g g V =.t.j.j.Y.j.G.G.j.G.G./ / _ N.Q.",
"2 3 3 3 3 3 3 3 3 4 4 1 1 4 3 8 5 8 4 1 4 5 5 w 5 w 5 w 5 w 4 4 w w s 4 w w s s w s e g V V @.7.t.T.q.j.T.j.T.j.G.G.G.S _ N.Q.Q.",
"3 3 3 2 3 3 3 3 4 2 1 2 4 4 8 5 5 4 1 4 4 4 5 w 5 w 5 w w 5 4 w 5 w w w s w s s g g X.V @.5.7.7.q.T.T.j.T.j.j.G.G.G.G.B.G.N.Q.G.",
"3 1 1 4 < 4 4 & 1 1 1 4 4 4 w 4 4 < 4 4 4 4 4 4 5 4 4 4 4 4 5 5 s 5 5 ] u ] ] $.$.g V @.5.9.=.=.5.7.8.t.j.j.j.p.C.t.G.G.G.G.N.!.",
"3 2 3 4 4 4 4 4 < < 1 1 1 4 4 4 < & 4 4 4 4 4 4 4 4 4 4 4 4 5 3 w ] ] x O.O.$.X.X.g V V V V V B @.B =.=.j.j.t.p.t.G.N.K.G.G.I.G.",
"1 3 4 2 < 1 & < 1 1 1 1 1 4 4 1 & 4 4 4 4 4 & 1 1 4 4 4 4 4 u u ] u x O.q.<.-.q.<.9.@.V g V V V V V W R p.p.t.j.j.j.N.G.Y.~.E.Y.",
"1 2 1 1 < < 4 & & 1 1 4 4 4 & & 4 < & 4 & 4 4 4 4 4 4 w 5 s u i O.O.q.q.q.q.q.q.q.q.q.9.R V V @.R a.5.7.5.a.p.p.G.j.Y.Y.E.E.~.E.",
"1 2 1 < < 4 & 4 & 4 & 4 1 1 $ & & 4 & < & 1 1 4 3 5 8 w u u u i q.q.q.q.q.q.q.q.q.q.,.q.,.@.@.=.5.5.a.8.7.5.j.Y.Y.Y.Y.Y.Y.~.Y.E.",
"2 < & & & & & < 4 & 4 4 & $ & & & & & & < 1 4 4 8 w w w u i i q.q.i i q.X.q.<.q.q.8.q.q.7.q.9.9.5.5.5.a.p.w.j.w.` Y.Y.Y.G.Y.Y.~.",
"1 & & < & < < < & & & & $ $ < & & $ $ & < 4 4 5 w w s u u i p i i q.i q.q.q.q.q.9.q.7.9.9.7.9.9.9.8.8.0.w.j.` Y.Y.K.Y.Y.Y.Y.E.E.",
"$ < & & < & & & & & & & @ & & & & $ & 1 * 4 5 5 w 8 u e i i q.9.i i X.q.u X.q.q.q.<.<.9.@.9.@.8.q.w.0.w.0.a.0.0.Y.Y.Y.Y.Y.Y.Y.E.",
"< & & & & & & & O $ X @ & & & $ @ & & 4 4 4 8 4 8 8 u u i i i u i i i <.<.<.i q.9.<.9.@.9.9.q.9.0.0.0.w.0.0.E.E.E.0.Y.0.Y.Y.Y.Y.",
"< $ < $ & $ & $ O . X & & @ @ & @ & * 4 5 5 8 8 8 8 w X.u i i i i i q.i p i p 9.i <.i 9.p 9.0.0.0.8.q.w.0.0.0.E.E.0.Y.Y.Y.Y.Y.Y.",
"& & & & & $ @ $ X . O X @ $ @ @ & 1 1 4 5 8 8 8 u u u i u i i i <.i i q.q.i 9.i <.i p q.9.q.9.q.0.0.0.0.0.0.0.0.0.E.Y.E Y.Y.Y.Y.",
"$ < $ X @ @ @ @   X X X @ @ @ & * & 1 4 8 w w w e w 8 w i u i i i q.i q.q.i @.i 9.q.a 9.9.9.9.0.q.9.9.0.0.E.0.0.0.0.0.Y.Y.Y.Y.Y.",
"O , @ $ . . .   . . . . . . > > * 1 1 w 8 w 8 w 8 w e i 9 i i i i p i <.@.i p i i 9.q.p 9.p 9.9.9.9.9.0.0.0.0.0.0.0.0.Y.E 0.Y.Y.",
"$ $ .     @   @     .   . > > > 1 1 4 4 8 w 8 w e w w w i i i i i i i i i i i 9.9.p p q.a 9.p 9.0.9.y 0.0.0.0.0.0.` 0.0.Y.E 0.` ",
"X             #     . O > > > 8 1 4 8 w w w w w 8 w e 8 u w i i i i i i i i p p p p p 0.9.y 9.q.R R 9.0.a 0.0.9.R ` 0.` p.E ` 0.",
".         .       . X + > > > 2 1 4 8 9 w w w w i w u i u e 9 i i i i u i p p q.p 9.p a a 9.y @.y 9.0.a 0.y R R 9.y 9.R ` ` 0.` ",
"        .         . . O 2 2 8 8 8 u u 8 u u i i u i u i i i 9 i e u e i i a i a 9.p p 9.y p R y y E 0.0.y R R W R R E ` 0.a.E ` ",
"                  . > + 2 8 8 8 9 9 u 9 9 9 9 i u u i 9 i w i w u e i e a i a i p 9.p p R e y p 9.a a y V R R R R ` 9.a.R 0.0.` ",
".     . O . . O O > > 6 8 8 8 u 9 8 8 u u u 8 u 8 u 9 u e u u e e i p p a i i i p y p p y V p y a 0.0.e y R R R y R R W R R R R ",
"  . O > > > O > > > 8 8 u 8 u 8 u u 9 8 9 8 8 u 8 u 9 8 8 e 8 e i e e p i e i a i y e y y y y a a a R y R e q R R R R R R E ` R ",
"  & 1 1 1 6 8 > 8 8 8 8 8 8 8 u 8 8 8 8 9 u 8 9 9 u 9 u 9 u e w 9 p 9 p p a e e e y y e y y y a a y y y R e R R R R R E R R R E ",
". 1 2 3 3 8 > 8 1 8 8 8 8 8 8 8 8 u u 9 8 9 u 9 9 9 u 9 9 9 w e e 9 p p e e e p e e p y y R y R t q e e e y R R a R R y R E ` E ",
"O > 1 3 1 8 1 8 1 3 3 8 3 8 8 8 8 8 9 9 8 8 8 9 u 9 u 9 i i 9 e 9 p p 9 p 9 e p q y y y y y e q e q R e y 9.0.y y R R R E E a E ",
"< 1 1 1 1 1 8 > 1 3 3 3 3 8 3 8 9 9 9 9 9 9 9 8 9 9 9 9 9 9 9 e t 9 9 t 9 p t 9 y e y t e e q q d q y R a y y R y E E y E E E E ",
"< + > 1 > 1 6 1 2 2 3 2 3 8 3 8 8 9 9 9 9 9 8 8 w 9 9 9 9 w e q e 9 t t 9 e q y e t q q q 0 q 0 s y R y R y R R y y R t d t R l ",
"* 1 > 1 1 2 1 3 3 3 3 3 3 3 3 6 > 8 9 8 9 9 9 8 6 8 9 e q 9 9 9 t 9 9 9 y 9 t t q 0 q q 0 e q q y y y y R q q q e q q t t R y y ",
"& & > > 2 2 2 > 2 3 3 3 1 1 1 1 8 = 8 6 8 6 6 6 6 9 9 7 9 6 9 9 9 9 r q q q 9 7 0 q ; s q q q s y y q q q q d e l y y y y E E y ",
"& & > > > > 2 > 2 3 3 1 1 1 1 1 > 8 8 6 8 6 6 8 8 9 w 9 7 9 9 7 9 9 9 9 9 7 6 6 0 0 0 ; q e q q y q e q q q t q t t l t y y y y ",
"< & & & > 2 2 2 2 3 3 2 1 1 > 1 > 8 = 8 1 6 8 6 6 9 6 6 q 6 9 6 6 0 6 6 6 6 ; 0 0 0 s q q q q t q q q q t q q y E ; y E y y y a ",
"& O O < 2 > 2 2 2 2 2 3 < 1 3 < 1 + > 1 6 1 6 8 6 9 6 9 6 0 6 6 6 6 - * 6 6 - 0 0 0 ; q q q ; l 7 t t q e y t t ; E ; ; y E y y ",
", < < < 2 2 2 2 3 1 3 2 < 1 1 < 1 > 1 > 1 6 6 6 6 6 6 6 w * * * * - 0 0 0 0 0 - - 0 q q q ; q q e q t t t t t q E ; y E E y E E ",
": < < 2 2 2 2 2 2 2 2 2 < 1 < 1 > > 6 > 1 6 6 6 6 6 8 6 * 0 * 0 - 6 - - * * 0 - - - q 0 ; ; r q q r t q t t t y E E y y r y y r ",
"< < 2 2 2 , 2 2 2 3 2 2 > < 1 > 1 > > 1 6 6 = 6 6 - * * * - * - * 4 - * - - - - - 0 ; 0 0 0 q 0 r t t t r t t t ; E E R ; R t E ",
"< < < 2 2 2 2 2 2 2 2 < 2 < < > > > O + 6 1 6 1 6 1 * * * * * * * - * - * - * % - ; 0 - - q ; ; r t ; ; r t r r R ; ; R E t E ; ",
", < < 2 2 , 2 2 2 2 2 < > 3 > 1 + + O 1 1 6 + 6 * % % % % * * * * * * * - % % - - 0 - 0 0 ; ; r r r ; R r l q q ; ; t t y y t E ",
"< , , 2 2 2 2 2 2 2 2 2 2 > < > > 1 > 1 + > + + + & & & & & % % * % * - - % - - - - - ; - - ; ; r ; t ; ; ; q q t E E ; ; y t t ",
", 2 , 2 , 2 , 2 2 2 2 , 2 < < < O < 1 > 1 + > + o % O + % O O % % % % - * % % - - ; - - - - ; r q 7 q 7 ; q 0 q ; E E ; E E ; E ",
", , 2 , 2 , 2 2 2 2 2 , < 2 > < > > * + + + * O O & * % + % % O % * - % - - - - 0 - - - - - ; ; ; ; ; q 0 0 0 q r ; ; E ; r E ; ",
", , 2 2 2 , 2 2 2 2 < < < > < > 1 O < 1 & & O O O % + + + o + + * * - - % % - - - - - - - ; 0 0 0 0 ; q q q q r r ; ; t ; ; ; y ",
", , , , , 2 , 2 2 2 2 2 < 2 < > O 1 + & + O % O O + + + + + + + % - % - - - - - - % - % ; ; 0 ; 7 0 ; q r ; q ; q r ; ; y ; E ; ",
", , , , 2 2 , 2 2 2 2 2 , , 2 , > > + > O O O o o O + * + + + + + = = - = - - - % % - ; 7 ; ; ; ; ; ; ; ; ; ; ; ; ; ; q r r q r ",
", , , 2 , 2 2 , 2 , 2 2 2 2 2 , > > > O O O o o o o + * 6 + + = = - = = = = = % % - ; ; ; ; ; - - - ; - - 0 0 0 - l q ; ; q q q ",
", , , , 2 , 2 , 2 2 , 2 2 2 2 , > O O > O O o o O + + 1 = = + + - - = = % % % % - ; 7 ; ; ; ; - - - - * - - - ; ; ; ; q r r ; r ",
", , , , , , 2 2 , 2 2 , 2 , 2 , > X O O O o o O O O + + 1 + + 1 + 1 = % - % % + - - - - - ; - - - - - ; - 0 ; ; ; ; q ; ; q r r ",
", , , , , , 2 , 2 , 2 2 , , 2 , O X O O X o O O O + > 1 * * * * * 1 + + % % % % - % - - - - - % * - - - - - - - ; ; ; q ; q r q ",
", , , , , , , 2 , , , , 2 , 2 2 > O X X O O o O O O + & 1 * * + = * + + + o % - = - - - - * - % - - - - - - - ; ; q ; ; r ; r ; ",
"# # , , , , , , , , , 2 2 2 , , > X O X O O O O + + 1 * + 1 * * * * + + % % + - + - % - - - % - - - - - ; - - ; ; ; ; ; ; r ; r ",
", , , , # , # , , , , , , , 2 , : O X O O X O O O O O 1 * & * 1 * * * + + % + + 1 - % - - - - - - - % - - ; ; - ; ; ; ; r ; r ; ",
", # , , # , , , , , , , 2 , , , : : X X O O O O O O < * * & 1 * * * + + + % * * - * * * - - * - - - % - - - - ; 0 - ; ; ; ; ; r ",
"# , # # , # # # , , , , , , 2 , : : > O : O O & & < & & < * & & * & < + & + * * & * 4 * - * - * % % = - - - - ; ; ; ; q r r ; q ",
", # # , # # , # # , # , , , , , < : : : X > X > & < < & & * * * & * * + + % * * * * * * * * * - - % % = = - - - ; ; ; ; r r ; q ",
"# # # # , # # # # # , # , , , , , , : X > > < O O O & & < & < & * O O + & + O 1 4 & * * * 0 4 * % - - = = - - - ; - ; ; ; ; ; ; ",
"# # , # , # # # , # , # # # , , < , , : : : X < < O < O < & + * & * + O + & 1 + * 4 * 4 * * * * % - * - = - - - ; ; ; ; ; ; ; ; ",
"# # # # # # # , # # # , # # # , $ $ $ < , : < : > < > < O < < O + O O + & * * < & * * * * - 4 * * * - % - - = - ; ; - ; ; ; ; ; ",
"# # # # # # # # # # # # # # # , $ , $ < , , , : , > < O < + & < & O + < < O < + & 4 4 * 4 * * & * % % - = - = - - ; ; ; ; ; ; ; ",
"# # # # # # # # # # # # # # # # $ $ & $ , , , , : < > < > < > * O O O & + * > 1 & & * & 4 * * % * % % - - = = = ; ; ; ; ; ; ; ; "
};
